<?xml version="1.0" standalone="no"?>
<!DOCTYPE svg PUBLIC "-//W3C//DTD SVG 20010904//EN"
 "http://www.w3.org/TR/2001/REC-SVG-20010904/DTD/svg10.dtd">
<svg version="1.0" xmlns="http://www.w3.org/2000/svg"
 width="338.000000pt" height="137.000000pt" viewBox="0 0 338.000000 137.000000"
 preserveAspectRatio="xMidYMid meet">

<g transform="translate(0.000000,137.000000) scale(0.100000,-0.100000)"
fill="#000000" stroke="none">
<path d="M207 1143 c-4 -3 -7 -30 -7 -60 l0 -53 105 0 c63 0 105 -4 105 -10 0
-6 -42 -10 -105 -10 l-105 0 0 -70 0 -70 106 0 c80 0 105 -3 102 -12 -3 -9
-36 -14 -106 -16 l-102 -3 0 -64 0 -64 102 -3 c70 -2 103 -7 106 -15 3 -10
-22 -13 -102 -13 l-106 0 0 -70 0 -69 102 -3 c70 -2 103 -7 106 -15 3 -10 -22
-13 -102 -13 l-106 0 0 -70 0 -70 106 0 c80 0 105 -3 102 -12 -3 -9 -36 -14
-107 -16 l-102 -3 3 -67 3 -67 1495 0 1495 0 3 67 3 67 -102 3 c-71 2 -104 7
-107 16 -3 9 22 12 102 12 l106 0 0 65 0 64 -102 3 c-70 2 -103 7 -106 16 -3
9 22 12 102 12 l106 0 0 70 0 69 -102 3 c-70 2 -103 7 -106 16 -3 9 22 12 102
12 l106 0 0 70 0 69 -100 3 c-58 2 -100 7 -100 13 0 6 42 11 100 13 l100 3 0
64 0 64 -102 3 c-136 4 -135 22 0 26 l103 3 -3 57 -3 57 -1491 3 c-820 1
-1494 -1 -1497 -5z m866 -126 c74 -34 95 -75 89 -169 l-2 -28 -104 0 c-96 0
-104 1 -99 18 2 10 -4 28 -14 41 -38 47 -154 24 -169 -34 -11 -46 26 -71 149
-99 85 -20 137 -46 171 -86 58 -70 21 -217 -73 -286 -85 -63 -224 -92 -350
-74 -134 19 -183 64 -189 172 l-4 68 101 0 101 0 0 -25 c0 -14 12 -37 26 -52
23 -23 31 -25 85 -21 68 5 109 34 109 78 0 40 -24 55 -145 90 -60 17 -124 40
-141 51 -118 73 -60 279 99 349 70 31 122 39 218 36 67 -3 99 -9 142 -29z
m1360 13 c81 -23 132 -98 120 -175 l-6 -35 -101 0 -101 0 -2 27 c-2 35 -27 53
-75 53 -71 0 -119 -41 -104 -88 9 -26 37 -40 143 -67 114 -30 149 -49 181 -96
34 -49 28 -138 -14 -205 -61 -100 -175 -149 -344 -148 -91 0 -112 3 -162 26
-31 14 -64 38 -73 52 -23 34 -35 91 -28 132 l6 34 98 0 99 0 0 -25 c0 -14 11
-37 25 -50 35 -36 121 -36 164 1 38 32 42 76 9 98 -13 8 -66 27 -119 41 -53
15 -113 37 -135 49 -130 72 -76 283 92 357 84 38 230 46 327 19z m-546 -13
c-2 -7 -10 -38 -17 -70 l-11 -57 -174 0 -174 0 -10 -37 c-5 -21 -13 -55 -17
-75 l-6 -38 161 0 c124 0 159 -3 156 -12 -2 -7 -9 -39 -15 -70 l-11 -58 -162
-2 -162 -3 -11 -50 c-24 -103 -38 -95 156 -95 125 0 170 -3 170 -12 0 -6 -5
-38 -12 -70 l-12 -58 -279 0 c-219 0 -278 3 -275 13 3 6 38 168 79 360 l74
347 278 0 c222 0 278 -3 274 -13z m1033 -2 c0 -14 -136 -656 -146 -687 -5 -16
-19 -18 -105 -18 -54 0 -99 2 -99 4 0 2 34 161 75 352 41 192 75 352 75 357 0
4 45 7 100 7 81 0 100 -3 100 -15z"/>
</g>
</svg>
